<?xml version="1.0" standalone="no"?>
<!DOCTYPE svg PUBLIC "-//W3C//DTD SVG 20010904//EN"
 "http://www.w3.org/TR/2001/REC-SVG-20010904/DTD/svg10.dtd">
<svg version="1.0" xmlns="http://www.w3.org/2000/svg"
 width="260.000000pt" height="260.000000pt" viewBox="0 0 260.000000 260.000000"
 preserveAspectRatio="xMidYMid meet">
<metadata>
Created by potrace 1.14, written by Peter Selinger 2001-2017
</metadata>
<g transform="translate(0.000000,260.000000) scale(0.100000,-0.100000)"
fill="#000000" stroke="none">
<path d="M1703 2216 c-13 -7 -31 -19 -40 -27 -10 -8 -40 -26 -68 -39 -27 -14
-69 -37 -91 -52 -23 -16 -46 -28 -51 -28 -6 0 -18 -9 -28 -20 -10 -12 -25 -18
-32 -16 -7 3 -13 1 -13 -5 0 -5 -8 -13 -17 -17 -10 -4 -36 -19 -58 -32 -22
-14 -43 -24 -47 -23 -4 2 -15 -8 -25 -20 -10 -13 -24 -22 -31 -19 -6 2 -15 -3
-18 -12 -3 -9 -10 -14 -14 -11 -5 3 -14 -1 -22 -8 -7 -8 -19 -12 -26 -9 -6 2
-14 -2 -17 -10 -4 -10 -27 -13 -87 -13 -74 1 -85 -1 -104 -22 -11 -12 -24 -20
-27 -16 -4 3 -15 -4 -26 -15 -10 -12 -23 -22 -28 -22 -6 0 -22 -11 -36 -24
-14 -13 -28 -22 -31 -19 -6 7 -116 -104 -116 -117 0 -17 -26 -40 -44 -40 -9 0
-16 -8 -16 -20 0 -11 -4 -20 -10 -20 -5 0 -10 -9 -10 -21 0 -11 5 -17 10 -14
6 3 10 1 10 -5 0 -17 26 -40 44 -40 9 0 16 -4 16 -8 0 -13 32 -12 60 1 45 21
79 53 70 68 -10 16 -3 32 11 23 6 -3 18 4 28 15 10 12 22 21 27 21 5 0 22 11
37 25 15 14 27 23 27 19 0 -3 7 -1 15 6 8 6 19 9 24 6 5 -4 13 -1 18 7 10 15
57 37 83 37 10 0 25 -7 33 -15 8 -8 17 -11 21 -8 3 4 15 -3 26 -15 12 -12 25
-22 30 -22 6 0 18 -8 29 -19 17 -17 17 -20 2 -47 -22 -39 -120 -134 -138 -134
-8 0 -11 -4 -8 -10 4 -6 -6 -8 -24 -6 -17 2 -31 0 -31 -4 0 -10 -51 -33 -80
-35 -13 -1 -26 -7 -28 -14 -2 -6 -8 -8 -14 -5 -5 3 -16 -2 -23 -12 -8 -11 -15
-15 -15 -10 0 5 -7 2 -17 -5 -9 -8 -23 -14 -32 -14 -9 -1 -27 -7 -39 -14 -13
-7 -26 -10 -29 -7 -4 3 -11 1 -18 -4 -6 -5 -21 -11 -32 -13 -12 -2 -28 -9 -37
-16 -9 -7 -16 -11 -16 -7 0 4 -10 0 -23 -9 -13 -8 -27 -12 -31 -8 -4 4 -10 2
-14 -4 -4 -6 -19 -13 -34 -15 -14 -2 -32 -9 -40 -16 -8 -6 -18 -9 -21 -5 -4 3
-9 -1 -12 -9 -4 -10 -15 -13 -31 -10 -14 2 -24 0 -24 -7 0 -6 -9 -11 -19 -11
-11 0 -21 -4 -23 -10 -1 -5 -15 -11 -30 -12 -16 -1 -28 -6 -28 -10 0 -4 -14
-8 -30 -8 -17 0 -33 -6 -36 -14 -3 -8 -12 -12 -20 -9 -8 3 -14 0 -14 -6 0 -6
-9 -11 -19 -11 -11 0 -23 -4 -26 -10 -3 -5 1 -10 9 -10 9 0 16 -4 16 -10 0 -5
11 -10 24 -10 14 0 27 -4 30 -9 10 -15 75 -18 80 -4 3 7 14 13 25 13 11 0 37
9 57 20 20 12 39 18 42 15 3 -3 16 2 29 10 13 9 28 13 33 10 6 -3 10 1 10 9 0
11 9 16 29 16 17 0 33 5 36 10 4 6 11 8 16 5 5 -4 11 0 14 7 3 8 18 15 33 16
15 1 29 7 30 12 2 6 7 8 12 5 5 -3 14 1 22 8 7 8 21 13 31 11 9 -1 23 3 30 10
6 6 23 12 36 13 13 1 27 7 31 14 4 6 12 9 18 5 5 -3 15 1 22 9 7 8 16 12 21 9
5 -3 12 1 15 9 4 13 16 14 42 8 8 -2 -390 -391 -399 -391 -7 0 -19 -8 -28 -18
-9 -10 -27 -19 -40 -19 -13 -1 -27 -6 -30 -10 -3 -5 -17 -10 -30 -10 -13 -1
-28 -7 -32 -14 -4 -7 -14 -9 -23 -6 -8 3 -22 0 -29 -8 -8 -7 -28 -12 -45 -11
-19 1 -33 -3 -36 -11 -4 -8 -15 -12 -31 -9 -16 3 -25 0 -25 -8 0 -8 -13 -12
-37 -12 -21 1 -41 -2 -44 -7 -8 -12 1 -57 12 -57 5 0 9 -4 9 -9 0 -5 -13 -7
-30 -6 -16 1 -30 -1 -30 -5 0 -4 -13 -13 -30 -20 l-30 -12 0 -97 c0 -88 2 -98
24 -118 19 -19 35 -23 84 -23 34 0 64 5 67 10 3 6 -3 10 -13 10 -27 0 -45 23
-30 38 7 7 8 12 3 12 -4 0 0 9 11 21 10 12 18 23 17 25 -12 19 2 23 19 7 13
-12 30 -22 38 -23 28 -4 41 0 35 10 -4 6 6 8 24 6 19 -2 32 2 35 11 3 8 10 12
15 9 5 -3 14 1 21 10 7 8 19 13 26 10 7 -3 15 1 18 9 2 7 13 12 23 11 10 -2
35 8 56 21 20 13 37 20 37 17 0 -4 9 1 20 11 11 10 20 15 20 11 0 -3 11 1 25
10 14 9 28 14 31 11 4 -3 24 5 45 19 21 13 39 21 39 17 0 -4 13 5 28 20 16 15
32 24 36 20 4 -4 12 0 17 10 6 9 14 15 20 12 5 -4 9 -1 9 4 0 6 9 11 19 11 11
0 28 10 38 23 10 12 23 22 28 23 19 1 65 24 65 32 0 5 10 8 23 7 12 -1 25 2
28 8 7 9 107 12 117 3 9 -9 -23 -32 -47 -33 -13 -1 -27 -6 -30 -10 -3 -4 -17
-10 -31 -11 -14 -2 -36 -16 -50 -32 -15 -17 -34 -27 -47 -25 -13 1 -23 -3 -24
-9 -5 -76 -2 -147 6 -149 5 -2 10 -25 11 -51 1 -27 7 -52 14 -56 6 -4 11 -10
11 -14 -4 -26 1 -46 8 -41 6 3 8 -4 6 -15 -3 -18 1 -20 48 -20 l53 0 -1 86
c-1 51 3 88 10 90 5 2 11 16 11 29 2 33 24 61 35 44 5 -9 16 -7 41 8 18 11 43
19 55 18 12 -1 25 5 28 13 3 7 11 12 17 10 7 -3 21 6 31 19 10 12 21 22 25 21
4 -1 17 3 28 10 12 6 24 8 28 5 3 -3 6 1 6 10 0 10 6 14 14 11 7 -3 22 6 32
19 11 13 24 22 31 20 6 -2 14 1 18 6 3 6 15 11 26 11 11 0 18 4 15 9 -3 4 17
20 44 35 28 15 50 25 50 21 0 -3 15 11 33 31 28 33 34 51 28 94 0 6 -7 10 -15
10 -7 0 -19 7 -26 15 -16 19 -68 45 -91 45 -10 0 -21 5 -24 10 -3 5 -21 10
-40 10 -19 0 -37 5 -40 10 -3 6 -17 10 -29 10 -13 0 -29 7 -36 15 -11 13 -9
19 9 34 11 10 21 23 21 28 0 15 106 119 117 116 6 -2 19 7 30 20 10 13 24 22
31 19 6 -2 15 3 18 12 9 23 35 6 115 -75 37 -38 73 -70 80 -71 7 -2 24 -13 37
-26 13 -12 28 -20 33 -17 5 4 9 1 9 -4 0 -17 26 -13 66 9 20 12 39 19 41 16 3
-3 15 0 27 6 11 7 25 12 29 13 5 0 15 9 23 20 8 11 18 20 22 20 13 1 72 30 72
35 0 3 11 6 25 6 18 0 27 -7 31 -23 4 -13 11 -23 16 -23 6 0 8 -6 5 -14 -3 -8
1 -17 8 -20 8 -3 12 -12 9 -19 -8 -21 47 -27 66 -7 20 20 19 59 -1 73 -9 7
-19 22 -23 35 -4 12 -11 22 -16 22 -5 0 -7 19 -5 42 2 25 -2 46 -10 54 -7 8
-12 22 -11 31 3 19 -17 44 -37 47 -6 1 -19 6 -27 11 -8 5 -19 10 -25 10 -5 1
-9 7 -7 15 5 22 -20 60 -40 60 -10 0 -18 -5 -18 -10 0 -6 -8 -10 -17 -8 -28 5
-30 -49 -4 -71 12 -10 21 -23 21 -28 0 -15 -35 -43 -54 -43 -11 0 -14 -4 -10
-12 5 -8 2 -9 -10 -5 -10 4 -19 1 -23 -9 -3 -8 -12 -13 -20 -10 -7 3 -16 -1
-20 -10 -3 -8 -12 -13 -20 -10 -7 3 -16 -1 -19 -8 -3 -8 -11 -13 -19 -12 -18
3 -45 26 -45 39 0 6 -8 19 -17 29 -9 10 -18 29 -20 41 -2 12 -8 23 -13 25 -5
2 -2 14 6 28 9 13 20 22 24 19 4 -3 20 2 36 10 15 7 31 12 36 9 4 -3 8 0 8 5
0 6 14 11 30 11 17 0 30 5 30 11 0 7 12 10 29 7 18 -3 29 0 28 6 -1 6 13 12
31 14 17 2 32 7 32 13 0 5 14 9 30 9 17 0 30 5 30 11 0 5 4 8 8 5 11 -7 72 31
72 44 0 6 -10 14 -23 19 -13 5 -29 16 -36 25 -15 18 -41 22 -41 6 0 -5 -9 -10
-20 -10 -11 0 -20 -4 -20 -10 0 -5 -11 -10 -24 -10 -14 0 -28 -4 -31 -10 -12
-19 -25 -10 -25 18 0 18 10 35 30 51 19 14 30 32 30 48 0 42 18 49 114 48 54
-1 92 3 100 10 6 6 34 11 61 10 28 0 55 4 61 10 6 6 33 11 60 10 27 -1 52 3
56 9 3 5 27 10 52 10 40 1 46 4 46 23 0 17 -5 21 -22 18 -12 -3 -30 3 -39 11
-10 9 -23 13 -28 9 -6 -3 -20 1 -32 9 -12 8 -27 12 -34 10 -6 -3 -18 2 -25 10
-7 9 -16 14 -20 11 -4 -3 -13 2 -20 10 -6 7 -18 11 -27 8 -8 -3 -19 0 -23 7
-4 7 -19 13 -34 13 -14 0 -26 3 -26 8 0 5 -13 9 -29 9 -16 0 -31 4 -33 9 -1 5
-14 11 -28 13 -14 1 -31 8 -37 15 -7 6 -22 9 -33 6 -11 -3 -20 0 -20 6 0 6
-13 11 -29 11 -16 0 -31 5 -33 11 -2 6 -16 12 -31 12 -15 0 -27 3 -27 8 0 5
-13 9 -30 9 -16 0 -30 5 -30 10 0 6 -13 10 -30 10 -16 0 -30 5 -30 10 0 6 -13
10 -30 10 -16 0 -30 5 -30 10 0 14 -60 11 -87 -4z m-216 -399 c14 -14 15 -17
3 -18 -8 -1 -19 -1 -23 0 -4 1 -18 -4 -30 -11 -12 -7 -26 -13 -32 -13 -22 -2
-90 17 -104 28 -8 7 -27 13 -43 13 -38 2 -40 3 -34 12 2 4 59 8 125 7 100 -1
124 -4 138 -18z"/>
</g>
</svg>
